<svg width="44" height="44" viewBox="0 0 44 44" fill="none" xmlns="http://www.w3.org/2000/svg">
<g clip-path="url(#clip0_11_991)">
<path d="M0 8C0 3.58172 3.58172 0 8 0H36C40.4183 0 44 3.58172 44 8V36C44 40.4183 40.4183 44 36 44H8C3.58172 44 0 40.4183 0 36V8Z" fill="black"/>
<path fill-rule="evenodd" clip-rule="evenodd" d="M15.8129 29C15.6369 29 15.4609 28.912 15.3729 28.758L13.4589 25.568L11.9409 23.28H9.71894L9.85094 28.714C9.85094 28.868 9.71894 29 9.56494 29H6.63894C6.48494 29 6.35294 28.868 6.35294 28.714L6.52894 21.3L6.35294 13.886C6.35294 13.732 6.48494 13.6 6.63894 13.6H12.8429C16.6929 13.6 18.9149 15.228 18.9149 18.44C18.9149 20.3529 18.0213 21.764 16.4327 22.5545C16.1394 22.7004 15.8224 22.8251 15.4829 22.928L19.2669 28.758C19.3329 28.868 19.2669 29 19.1349 29H15.8129ZM16.9801 23.3978L19.792 27.7302L19.9447 21.3L19.8905 19.0196C19.7971 20.1096 19.4356 21.0861 18.8063 21.8986C18.3223 22.5234 17.7027 23.0221 16.9801 23.3978ZM19.8543 17.494L19.769 13.8979V13.886C19.769 13.1797 20.3487 12.6 21.055 12.6H24.993C25.5915 12.6 26.0936 12.9695 26.3081 13.4701L26.318 13.4933L29.4328 21.9116L32.3584 13.5526C32.5504 12.945 33.1226 12.6 33.683 12.6H37.357C38.0632 12.6 38.643 13.1797 38.643 13.886V13.8979L38.4672 21.3L38.643 28.7021V28.714C38.643 29.4203 38.0632 30 37.357 30H34.5189C33.8127 30 33.233 29.4203 33.233 28.714V24.3578L31.5749 29.0492C31.3824 29.6557 30.8107 30 30.251 30H28.183C27.5845 30 27.0823 29.6305 26.8678 29.1299L26.8578 29.1066L24.8389 23.6467L24.849 24.1275V28.714C24.849 29.4203 24.2692 30 23.563 30H21.055C20.6594 30 20.3036 29.8182 20.0671 29.5342C19.8497 29.828 19.5047 30 19.1349 30H15.8129C15.3358 30 14.8042 29.7675 14.5115 29.2659L12.6131 26.102L11.4043 24.28H10.7435L10.8509 28.7019V28.714C10.8509 29.4203 10.2712 30 9.56494 30H6.63894C5.93265 30 5.35294 29.4203 5.35294 28.714V28.7021L5.52865 21.3L5.35294 13.8979V13.886C5.35294 13.1797 5.93265 12.6 6.63894 12.6H12.8429C14.8872 12.6 16.658 13.029 17.9376 14.0269C19.0266 14.8761 19.6642 16.062 19.8543 17.494ZM23.739 18.902L23.695 17.67L27.787 28.736C27.853 28.89 28.007 29 28.183 29H30.251C30.427 29 30.581 28.89 30.625 28.736L34.365 18.154L34.343 18.858L34.233 24.138V28.714C34.233 28.868 34.365 29 34.5189 29H37.357C37.511 29 37.643 28.868 37.643 28.714L37.467 21.3L37.643 13.886C37.643 13.732 37.511 13.6 37.357 13.6H33.683C33.507 13.6 33.353 13.71 33.309 13.864L29.459 24.864L25.389 13.864C25.323 13.71 25.169 13.6 24.993 13.6H21.055C20.901 13.6 20.769 13.732 20.769 13.886L20.945 21.3L20.769 28.714C20.769 28.868 20.901 29 21.055 29H23.563C23.717 29 23.849 28.868 23.849 28.714V24.138L23.739 18.902ZM14.2841 19.5111C14.4907 19.3496 14.6809 19.0736 14.6809 18.506C14.6809 17.8713 14.4999 17.5643 14.3104 17.3974C14.0983 17.2105 13.6972 17.042 12.9749 17.042H10.7843L10.7201 19.838H13.0629C13.6296 19.838 14.0389 19.7028 14.2841 19.5111ZM9.69694 20.838L9.80694 16.042H12.9749C14.6909 16.042 15.6809 16.834 15.6809 18.506C15.6809 20.178 14.4709 20.838 13.0629 20.838H9.69694Z" fill="url(#paint0_linear_11_991)"/>
</g>
<defs>
<linearGradient id="paint0_linear_11_991" x1="21.9979" y1="12.6" x2="21.9979" y2="30" gradientUnits="userSpaceOnUse">
<stop stop-color="#A993FF"/>
<stop offset="1" stop-color="#FFE193"/>
</linearGradient>
<clipPath id="clip0_11_991">
<rect width="44" height="44" fill="white"/>
</clipPath>
</defs>
</svg>
