<svg width="18" height="18" viewBox="0 0 18 18" fill="none" xmlns="http://www.w3.org/2000/svg">
<path fill-rule="evenodd" clip-rule="evenodd" d="M1.8877 11.87L1.9677 8.5L1.8877 5.13C1.8877 5.06 1.9477 5 2.0177 5H4.8377C6.225 5 7.14725 5.46505 7.46994 6.38518C7.55431 6.62574 7.5977 6.89741 7.5977 7.2C7.5977 7.44201 7.56623 7.66636 7.50524 7.87187C7.39863 8.23108 7.20183 8.53275 6.92523 8.77065C6.68657 8.97591 6.3885 9.1337 6.0377 9.24L7.7577 11.89C7.7877 11.94 7.7577 12 7.6977 12H6.1877C6.1077 12 6.0277 11.96 5.9877 11.89L5.1177 10.44L4.4277 9.4H3.4177L3.4777 11.87C3.4777 11.94 3.4177 12 3.3477 12H2.0177C1.9477 12 1.8877 11.94 1.8877 11.87ZM4.464 11.2942L4.4777 11.8579V11.87C4.4777 12.4923 3.96998 13 3.3477 13H2.0177C1.39541 13 0.887695 12.4923 0.887695 11.87V11.8581L0.967414 8.5L0.887695 5.14187V5.13C0.887695 4.50772 1.39541 4 2.0177 4H4.8377C5.83197 4 6.77479 4.20705 7.4889 4.76394C7.49221 4.76652 7.49552 4.76911 7.49882 4.77171C7.64924 4.32406 8.07327 4 8.57043 4H10.3604C10.8629 4 11.281 4.3095 11.4596 4.72608L11.4695 4.7493L12.3643 7.16759L13.1909 4.80584C13.3593 4.28448 13.8465 4 14.3104 4H15.9804C16.6027 4 17.1104 4.50772 17.1104 5.13V5.14187L17.0307 8.5L17.1104 11.8581V11.87C17.1104 12.4923 16.6027 13 15.9804 13H14.6904C14.29 13 13.9369 12.7897 13.7362 12.474C13.5108 12.8164 13.1231 13 12.7504 13H12.4419L12.4166 13.0724L12.3898 13H11.8104C11.333 13 10.9318 12.7206 10.7398 12.3355C10.5618 12.7267 10.167 13 9.71043 13H8.57043C8.41406 13 8.26493 12.9679 8.12926 12.9101C7.99478 12.9688 7.848 13 7.6977 13H6.1877C5.80665 13 5.37154 12.8156 5.12681 12.3988L4.464 11.2942ZM9.71043 12C9.78043 12 9.84043 11.94 9.84043 11.87V9.79L9.79043 7.41L9.77043 6.85L11.6304 11.88C11.6604 11.95 11.7304 12 11.8104 12H12.7504C12.7653 12 12.7798 11.9983 12.7936 11.995C12.8547 11.9808 12.9041 11.937 12.9204 11.88L14.6204 7.07L14.6104 7.39L14.5604 9.79V11.87C14.5604 11.94 14.6204 12 14.6904 12H15.9804C16.0504 12 16.1104 11.94 16.1104 11.87L16.0304 8.5L16.1104 5.13C16.1104 5.06 16.0504 5 15.9804 5H14.3104C14.2304 5 14.1604 5.05 14.1404 5.12L12.3904 10.12L10.5404 5.12C10.5104 5.05 10.4404 5 10.3604 5H8.57043C8.50043 5 8.44043 5.06 8.44043 5.13L8.52043 8.5L8.44043 11.87C8.44043 11.94 8.50043 12 8.57043 12H9.71043ZM7.49296 9.64534L7.49408 9.59791C7.48708 9.6035 7.48006 9.60907 7.473 9.6146L7.49296 9.64534ZM5.1263 7.2676C5.12713 7.25739 5.1277 7.24493 5.1277 7.23C5.1277 7.1863 5.12462 7.15461 5.12123 7.13294C5.08347 7.12258 5.01371 7.11 4.8977 7.11H4.43502L4.43089 7.29H4.9377C5.02171 7.29 5.08277 7.27993 5.12172 7.26893C5.1233 7.26848 5.12482 7.26804 5.1263 7.2676ZM3.4077 8.29L3.4577 6.11H4.8977C5.6777 6.11 6.1277 6.47 6.1277 7.23C6.1277 7.99 5.5777 8.29 4.9377 8.29H3.4077Z" fill="black"/>
</svg>
